# xmcd
#
# Track frame offsets:
#	150
#	15019
#	28265
#	46601
#	58439
#
# Disc length: 990 seconds
#
# Revision: 1
# Processed by: cddbd v1.5.2PL0 Copyright (c) Steve Scherf et al.
# Submitted via: audiograbber 1.83.01
#
DISCID=3403dc05
DTITLE=Hackensaw Boys - Who's Looking After Me
DYEAR=2007
DGENRE=Country
TTITLE0=Lookout Dog
TTITLE1=Gospel Plow
TTITLE2=Stranger's Waltz
TTITLE3=F.D.R.
TTITLE4=California
EXTD=
EXTT0=
EXTT1=
EXTT2=
EXTT3=
EXTT4=
PLAYORDER=
